<svg width="151" height="151" viewBox="0 0 151 151" fill="none" xmlns="http://www.w3.org/2000/svg">
<rect width="151" height="151" fill="#F39419"/>
<path d="M34.5408 81.8637C36.1803 81.2431 37 78.1402 37 73.1755C37 64.177 32.628 60.4535 31.3984 68.2108C30.1688 75.6578 31.9449 83.1048 34.5408 81.8637Z" fill="#1C6998"/>
<path d="M117.541 81.8637C119.18 81.2431 120 78.1402 120 73.1755C120 64.177 115.628 60.4535 114.398 68.2108C113.169 75.6578 114.945 83.1048 117.541 81.8637Z" fill="#1C6998"/>
<path d="M58.2575 105.721C59.4297 107.907 65.2908 109 74.6686 109C91.6657 109 98.699 103.171 84.0463 101.531C69.9797 99.8918 55.9131 102.26 58.2575 105.721Z" fill="#1C6998"/>
<path d="M70.4013 14.6C66.8013 17.5333 66.4013 21.6667 69.3346 25.4C70.8013 27.2667 72.0013 30.2 72.0013 32.0667C72.0013 34.8667 71.468 35.2667 69.2013 34.7333C67.3346 34.2 65.7346 34.7333 64.8013 35.9333C63.868 37.1333 60.268 38.2 55.6013 38.6C44.1346 39.5333 34.668 48.2 34.668 57.8C34.668 61.2667 34.1346 62.2 31.7346 62.6C28.8013 63 28.668 63.6667 28.668 73.6667C28.668 83.6667 28.8013 84.3333 31.7346 84.7333C34.1346 85.1333 34.668 86.0667 34.668 89.8C34.668 93.2667 35.7346 95.6667 38.5346 98.4667C42.0013 101.8 43.468 102.333 50.0013 102.333C57.068 102.333 57.468 102.467 57.068 105.267C56.668 107.933 56.0013 108.2 51.068 107.933C44.4013 107.4 36.668 110.733 33.6013 115.4C32.1346 117.667 31.068 122.733 30.668 129.933L30.0013 141H75.3346H120.801L120.268 131.267C120.001 126.067 119.201 120.067 118.401 117.933C116.135 112.2 110.001 108.6 101.601 108.2C95.2013 107.933 94.1346 107.4 93.7346 105.133C93.3346 102.6 94.0013 102.333 100.535 102.333C105.601 102.333 108.535 101.533 111.068 99.6667C114.535 96.8667 118.135 88.7333 116.801 86.4667C116.401 85.8 117.468 84.8667 119.335 84.4667C122.535 83.6667 122.668 83.1333 122.668 73.6667C122.668 64.3333 122.535 63.6667 119.468 62.8667C117.735 62.4667 116.401 61.4 116.401 60.6C116.535 54.3333 115.468 51.1333 111.735 46.8667C106.535 40.8667 100.801 38.3333 92.8013 38.3333C88.668 38.3333 86.668 37.6667 86.1346 36.2C85.6013 34.7333 84.268 34.2 82.0013 34.6C79.2013 35.1333 78.668 34.7333 78.668 32.0667C78.668 30.2 79.868 27.2667 81.3346 25.4C85.6013 20.0667 82.1346 13 75.3346 13C73.7346 13 71.6013 13.8 70.4013 14.6ZM78.0013 21C78.0013 23.1333 77.2013 24.4667 75.6013 24.7333C73.068 25.2667 71.3346 22.0667 72.5346 18.8667C73.7346 15.5333 78.0013 17.1333 78.0013 21ZM102.001 45C111.201 49.4 112.668 53.5333 112.668 74.2C112.535 91.9333 112.535 91.9333 108.935 95.1333C105.201 98.3333 104.801 98.3333 75.3346 98.3333C36.5346 98.3333 38.668 99.8 38.4013 74.2C38.268 53.1333 39.6013 49.5333 48.668 45C53.3346 42.7333 56.668 42.3333 75.2013 42.3333C93.7346 42.3333 97.2013 42.7333 102.001 45ZM35.468 71.9333C36.0013 77.4 34.9346 81.2667 33.2013 80.3333C31.868 79.4 31.6013 68.6 32.9346 67.2667C34.268 65.8 35.068 67.2667 35.468 71.9333ZM118.668 73.6667C118.668 76.8667 118.135 79.8 117.468 80.2C115.735 81.2667 114.401 74.0667 115.468 69.8C116.668 64.7333 118.668 67 118.668 73.6667ZM90.668 105C90.668 107.533 89.7346 107.667 75.3346 107.667C60.9346 107.667 60.0013 107.533 60.0013 105C60.0013 102.467 60.9346 102.333 75.3346 102.333C89.7346 102.333 90.668 102.467 90.668 105ZM99.068 113C107.335 113 108.535 113.4 112.135 116.867C115.601 120.467 116.001 121.667 116.001 129.933V139.133H75.2013L34.4013 139L34.9346 129.4C35.7346 113.267 38.9346 111.933 74.668 112.6C83.068 112.733 94.1346 112.867 99.068 113Z" fill="#072631"/>
<path d="M112.134 116.867C108.534 113.4 107.334 113 99.0671 113L74.6671 112.6C38.9337 111.933 35.7337 113.267 34.9337 129.4L34.4004 139L75.2004 139.133H116V129.933C116 121.667 115.6 120.467 112.134 116.867Z" fill="#1C6998"/>
<path d="M75.602 24.7334C77.202 24.4667 78.002 23.1334 78.002 21.0001C78.002 17.1334 73.7353 15.5334 72.5353 18.8667C71.3353 22.0667 73.0687 25.2667 75.602 24.7334Z" fill="#1C6998"/>
<path d="M112.668 74.1998C112.668 53.5331 111.201 49.3998 102.001 44.9998C97.2012 42.7331 93.7345 42.3331 75.2012 42.3331C56.6678 42.3331 53.3345 42.7331 48.6678 44.9998C39.6012 49.5331 38.2678 53.1331 38.4012 74.1998C38.6678 99.7998 36.5345 98.3331 75.3345 98.3331C104.801 98.3331 105.201 98.3331 108.934 95.1331C112.534 91.9331 112.534 91.9331 112.668 74.1998Z" fill="#1C6998"/>
<path d="M57 78.3335C65.6667 78.3335 70.2 67.1335 63.9333 61.2668C57.6667 55.2668 47 59.8002 47 68.3335C47 73.4002 51.9333 78.3335 57 78.3335Z" fill="#1C6998"/>
<path d="M48.5337 56.7331C40.267 63.3998 41.067 76.7331 50.0004 80.7331C60.4004 85.5331 70.667 79.1331 70.667 68.0664C70.667 59.6664 65.3337 54.3331 57.067 54.3331C53.6004 54.3331 50.1337 55.2664 48.5337 56.7331ZM63.6004 61.2664C70.0004 67.2664 65.467 78.3331 56.5337 78.3331C51.6004 78.3331 46.667 73.2664 46.667 68.3331C46.667 59.7998 57.3337 55.2664 63.6004 61.2664Z" fill="#072631"/>
<path d="M53.9994 64.2002C50.6661 66.6002 51.8661 72.2002 55.8661 72.7335C59.9994 73.4002 63.0661 69.6669 61.3328 66.3335C59.5994 63.1335 56.6661 62.2002 53.9994 64.2002Z" fill="#072631"/>
<path d="M86.2667 55.8002C83.2 57.5335 80 64.0668 80 68.3335C80 76.7335 86.2667 82.3335 95.4667 82.3335C106.8 82.3335 112.4 66.6002 104.133 58.2002C100.933 55.1335 99.0667 54.3335 94.4 54.3335C91.2 54.3335 87.6 55.0002 86.2667 55.8002ZM100.933 61.2668C107.2 67.1335 102.667 78.3335 94 78.3335C88.9333 78.3335 84 73.4002 84 68.3335C84 59.8002 94.6667 55.2668 100.933 61.2668Z" fill="#072631"/>
<path d="M94 78.3335C102.667 78.3335 107.2 67.1335 100.933 61.2668C94.6667 55.2668 84 59.8002 84 68.3335C84 73.4002 88.9333 78.3335 94 78.3335Z" fill="#1C6998"/>
<path d="M91.3347 64.0668C90.0014 65.1335 89.2014 67.1335 89.6014 69.1335C89.868 71.6668 90.8014 72.3335 94.0014 72.3335C97.3347 72.3335 98.1347 71.8002 98.4014 68.7335C98.9347 64.2002 94.9347 61.5335 91.3347 64.0668Z" fill="#072631"/>
<path d="M60.6666 87.7998C58.6666 90.8665 62.6667 91.7998 76.1333 91.3998C87.3333 91.1332 90 90.5998 90 88.9998C90 87.3998 87.3333 86.8665 75.7333 86.5998C66.2667 86.3332 61.2 86.7332 60.6666 87.7998Z" fill="#072631"/>
<path d="M59.3338 121C58.9338 121.666 59.3338 122.733 60.4005 123C63.6005 124.333 91.3338 123.133 91.0671 121.666C90.5338 119.8 60.5338 119.133 59.3338 121Z" fill="#072631"/>
<path d="M59.3341 129.133C57.4675 132.067 62.1341 133 76.6675 132.733C88.6675 132.333 91.3341 131.933 91.3341 130.333C91.3341 128.733 88.5341 128.2 75.7341 127.933C65.2008 127.667 59.8675 128.067 59.3341 129.133Z" fill="#072631"/>
</svg>
